<svg xmlns="http://www.w3.org/2000/svg" viewBox="0 0 1200 1500"><defs><linearGradient id="skyg" x1="0" y1="0" x2="0" y2="1"><stop offset="0" stop-color="#9FD8F7"/><stop offset="0.6" stop-color="#CDEAF9"/><stop offset="1" stop-color="#FDE7C8"/></linearGradient><radialGradient id="stargrad"><stop offset="0" stop-color="#FFFBEA"/><stop offset="1" stop-color="#FFD34E"/></radialGradient><linearGradient id="liagown" x1="0" y1="0" x2="0" y2="1"><stop offset="0" stop-color="#F58BB4"/><stop offset="1" stop-color="#E8629A"/></linearGradient><linearGradient id="lautunic" x1="0" y1="0" x2="0" y2="1"><stop offset="0" stop-color="#4A72D4"/><stop offset="1" stop-color="#33509E"/></linearGradient><linearGradient id="helmet" x1="0" y1="0" x2="0" y2="1"><stop offset="0" stop-color="#DDE5EF"/><stop offset="1" stop-color="#AEBBCB"/></linearGradient><radialGradient id="embody"><stop offset="0" stop-color="#F9A8C4"/><stop offset="1" stop-color="#EE7FA6"/></radialGradient></defs><rect width="1200" height="1500" fill="url(#skyg)"/><circle cx="1010" cy="200" r="110" fill="#FFEFB0"/><circle cx="1010" cy="200" r="170" fill="#FFEFB0" opacity="0.35"/><path d="M0,900 Q300.0,760 600.0,837.0 T1200,802.0 L1200,1500 L0,1500 Z" fill="#B9A8D8" opacity="0.7"/><g transform="translate(880,900) scale(0.8) translate(-880,-900)"><rect x="710" y="670" width="340" height="230" rx="14" fill="#EFE2F7"/><rect x="710" y="648" width="34" height="30" rx="6" fill="#EFE2F7"/><rect x="770" y="648" width="34" height="30" rx="6" fill="#EFE2F7"/><rect x="830" y="648" width="34" height="30" rx="6" fill="#EFE2F7"/><rect x="890" y="648" width="34" height="30" rx="6" fill="#EFE2F7"/><rect x="950" y="648" width="34" height="30" rx="6" fill="#EFE2F7"/><rect x="1010" y="648" width="34" height="30" rx="6" fill="#EFE2F7"/><rect x="637.0" y="600" width="86" height="300" rx="7" fill="#EFE2F7"/><polygon points="618.08,600 741.92,600 680,483.9" fill="#7E5BC0"/><line x1="680" y1="483.9" x2="680" y2="436.59999999999997" stroke="#C9A227" stroke-width="5"/><path d="M680,436.59999999999997 h47.300000000000004 l-15.479999999999999,12.040000000000001 l15.479999999999999,12.040000000000001 h-47.300000000000004 Z" fill="#E86FA4"/><rect x="669.68" y="675.0" width="20.64" height="30.959999999999997" rx="10.32" fill="#FFDD86"/><rect x="669.68" y="771.0" width="20.64" height="30.959999999999997" rx="10.32" fill="#FFDD86"/><rect x="1037.0" y="600" width="86" height="300" rx="7" fill="#EFE2F7"/><polygon points="1018.08,600 1141.92,600 1080,483.9" fill="#7E5BC0"/><line x1="1080" y1="483.9" x2="1080" y2="436.59999999999997" stroke="#C9A227" stroke-width="5"/><path d="M1080,436.59999999999997 h47.300000000000004 l-15.479999999999999,12.040000000000001 l15.479999999999999,12.040000000000001 h-47.300000000000004 Z" fill="#E86FA4"/><rect x="1069.68" y="675.0" width="20.64" height="30.959999999999997" rx="10.32" fill="#FFDD86"/><rect x="1069.68" y="771.0" width="20.64" height="30.959999999999997" rx="10.32" fill="#FFDD86"/><rect x="825.0" y="500" width="110" height="400" rx="9" fill="#EFE2F7"/><polygon points="800.8,500 959.2,500 880,351.5" fill="#7E5BC0"/><line x1="880" y1="351.5" x2="880" y2="291.0" stroke="#C9A227" stroke-width="5"/><path d="M880,291.0 h60.50000000000001 l-19.8,15.400000000000002 l19.8,15.400000000000002 h-60.50000000000001 Z" fill="#E86FA4"/><rect x="866.8" y="600.0" width="26.4" height="39.6" rx="13.2" fill="#FFDD86"/><rect x="866.8" y="728.0" width="26.4" height="39.6" rx="13.2" fill="#FFDD86"/><rect x="866.8" y="856.0" width="26.4" height="39.6" rx="13.2" fill="#FFDD86"/><path d="M828,900 v-100 a52,52 0 0 1 104,0 v100 Z" fill="#5A4470"/><path d="M840,900 v-92 a40,40 0 0 1 80,0 v92 Z" fill="#8A6FB0"/></g><path d="M0,1140 Q300.0,1000 600.0,1077.0 T1200,1042.0 L1200,1500 L0,1500 Z" fill="#67A97F" opacity="1.0"/><path d="M0,1300 Q300.0,1160 600.0,1237.0 T1200,1202.0 L1200,1500 L0,1500 Z" fill="#4E8A63" opacity="1.0"/><g transform="translate(190,1180) scale(1.0)"><ellipse cx="0" cy="0" rx="120" ry="70" fill="#3E7D5C"/><circle cx="-99" cy="-49" r="16" fill="#F06CA0"/><circle cx="-99" cy="-49" r="7" fill="#FFFFFF" opacity="0.35"/><circle cx="-69" cy="-44" r="16" fill="#F06CA0"/><circle cx="-69" cy="-44" r="7" fill="#FFFFFF" opacity="0.35"/><circle cx="-37" cy="-44" r="16" fill="#F06CA0"/><circle cx="-37" cy="-44" r="7" fill="#FFFFFF" opacity="0.35"/><circle cx="7" cy="-44" r="16" fill="#F06CA0"/><circle cx="7" cy="-44" r="7" fill="#FFFFFF" opacity="0.35"/><circle cx="36" cy="-33" r="16" fill="#F06CA0"/><circle cx="36" cy="-33" r="7" fill="#FFFFFF" opacity="0.35"/><circle cx="69" cy="-19" r="16" fill="#F06CA0"/><circle cx="69" cy="-19" r="7" fill="#FFFFFF" opacity="0.35"/><circle cx="98" cy="-11" r="16" fill="#F06CA0"/><circle cx="98" cy="-11" r="7" fill="#FFFFFF" opacity="0.35"/></g><g transform="translate(1010,1240) scale(1.15)"><ellipse cx="0" cy="0" rx="120" ry="70" fill="#3E7D5C"/><circle cx="-94" cy="-55" r="16" fill="#F06CA0"/><circle cx="-94" cy="-55" r="7" fill="#FFFFFF" opacity="0.35"/><circle cx="-67" cy="-50" r="16" fill="#F06CA0"/><circle cx="-67" cy="-50" r="7" fill="#FFFFFF" opacity="0.35"/><circle cx="-30" cy="-34" r="16" fill="#F06CA0"/><circle cx="-30" cy="-34" r="7" fill="#FFFFFF" opacity="0.35"/><circle cx="-3" cy="-15" r="16" fill="#F06CA0"/><circle cx="-3" cy="-15" r="7" fill="#FFFFFF" opacity="0.35"/><circle cx="27" cy="-42" r="16" fill="#F06CA0"/><circle cx="27" cy="-42" r="7" fill="#FFFFFF" opacity="0.35"/><circle cx="68" cy="-41" r="16" fill="#F06CA0"/><circle cx="68" cy="-41" r="7" fill="#FFFFFF" opacity="0.35"/><circle cx="93" cy="-29" r="16" fill="#F06CA0"/><circle cx="93" cy="-29" r="7" fill="#FFFFFF" opacity="0.35"/></g><g transform="translate(620,1420) scale(1.3)"><ellipse cx="0" cy="0" rx="120" ry="70" fill="#3E7D5C"/><circle cx="-100" cy="-56" r="16" fill="#F06CA0"/><circle cx="-100" cy="-56" r="7" fill="#FFFFFF" opacity="0.35"/><circle cx="-60" cy="-15" r="16" fill="#F06CA0"/><circle cx="-60" cy="-15" r="7" fill="#FFFFFF" opacity="0.35"/><circle cx="-29" cy="-11" r="16" fill="#F06CA0"/><circle cx="-29" cy="-11" r="7" fill="#FFFFFF" opacity="0.35"/><circle cx="-1" cy="-30" r="16" fill="#F06CA0"/><circle cx="-1" cy="-30" r="7" fill="#FFFFFF" opacity="0.35"/><circle cx="31" cy="-21" r="16" fill="#F06CA0"/><circle cx="31" cy="-21" r="7" fill="#FFFFFF" opacity="0.35"/><circle cx="71" cy="-40" r="16" fill="#F06CA0"/><circle cx="71" cy="-40" r="7" fill="#FFFFFF" opacity="0.35"/><circle cx="97" cy="-47" r="16" fill="#F06CA0"/><circle cx="97" cy="-47" r="7" fill="#FFFFFF" opacity="0.35"/></g><g transform="translate(300,760) scale(1.2)"><ellipse cx="-9" cy="0" rx="10" ry="14" fill="#8FD0F2"/><ellipse cx="9" cy="0" rx="10" ry="14" fill="#8FD0F2"/><rect x="-2" y="-10" width="4" height="20" rx="2" fill="#5B4A6B"/></g><g transform="translate(880,640) scale(1.0)"><ellipse cx="-9" cy="0" rx="10" ry="14" fill="#F5C0E0"/><ellipse cx="9" cy="0" rx="10" ry="14" fill="#F5C0E0"/><rect x="-2" y="-10" width="4" height="20" rx="2" fill="#5B4A6B"/></g><g transform="translate(180,950) scale(0.9)"><ellipse cx="-9" cy="0" rx="10" ry="14" fill="#FFD97A"/><ellipse cx="9" cy="0" rx="10" ry="14" fill="#FFD97A"/><rect x="-2" y="-10" width="4" height="20" rx="2" fill="#5B4A6B"/></g><g transform="translate(560,1330) scale(1.75)"><path d="M-30,-118 C-44,-96 -46,-64 -36,-52 C-20,-60 20,-60 36,-52 C46,-64 44,-96 30,-118 Z" fill="#F3B23E"/><path d="M-16,-96 C-52,-52 -78,-24 -84,-6 Q0,20 84,-6 C78,-24 52,-52 16,-96 Z" fill="url(#liagown)"/><path d="M-84,-6 Q0,20 84,-6 L80,2 Q0,28 -80,2 Z" fill="#D8548C"/><path d="M-18,-88 q-26,-4 -34,18" stroke="#FFE0C7" stroke-width="11" fill="none" stroke-linecap="round"/><path d="M18,-90 q20,-22 26,-38" stroke="#FFE0C7" stroke-width="11" fill="none" stroke-linecap="round"/><path d="M-16,-96 h32 v22 q-16,8 -32,0 Z" fill="#E8629A"/><g transform="translate(0,-124)"><circle r="26" fill="#FFE0C7"/><path d="M-26,-4 C-28,-26 -14,-36 0,-36 C14,-36 28,-26 26,-4 C18,-16 10,-20 0,-20 C-10,-20 -18,-16 -26,-4 Z" fill="#F7C154"/><path d="M-26,-2 q-6,14 -2,26 q6,-10 8,-18 Z" fill="#F7C154"/><path d="M26,-2 q6,14 2,26 q-6,-10 -8,-18 Z" fill="#F7C154"/><path d="M-12,-32 l4,-10 l5,8 l5,-11 l5,11 l5,-8 l4,10 Z" fill="#F5C445" stroke="#D9A31E" stroke-width="1.4"/><circle cx="-8" cy="-2" r="4.6" fill="#3E7BC4"/><circle cx="-6.4" cy="-3.6" r="1.6" fill="#fff"/><circle cx="8" cy="-2" r="4.6" fill="#3E7BC4"/><circle cx="9.6" cy="-3.6" r="1.6" fill="#fff"/><circle cx="-14" cy="6" r="4.4" fill="#F7A8A0" opacity="0.7"/><circle cx="14" cy="6" r="4.4" fill="#F7A8A0" opacity="0.7"/><path d="M-6,8 q6,6 12,0" stroke="#B06A55" fill="none" stroke-width="2.8" stroke-linecap="round"/></g></g><path transform="translate(430,1080) scale(1.1)" opacity="1.0" fill="#FFE9A8" d="M0,-10 C1.5,-3 3,-1.5 10,0 C3,1.5 1.5,3 0,10 C-1.5,3 -3,1.5 -10,0 C-3,-1.5 -1.5,-3 0,-10 Z"/><path transform="translate(720,1010) scale(1.3)" opacity="1.0" fill="#FFE9A8" d="M0,-10 C1.5,-3 3,-1.5 10,0 C3,1.5 1.5,3 0,10 C-1.5,3 -3,1.5 -10,0 C-3,-1.5 -1.5,-3 0,-10 Z"/><path transform="translate(640,1210) scale(0.9)" opacity="1.0" fill="#FFE9A8" d="M0,-10 C1.5,-3 3,-1.5 10,0 C3,1.5 1.5,3 0,10 C-1.5,3 -3,1.5 -10,0 C-3,-1.5 -1.5,-3 0,-10 Z"/></svg>