<svg xmlns="http://www.w3.org/2000/svg" viewBox="0 0 1200 1500"><defs><linearGradient id="skyg" x1="0" y1="0" x2="0" y2="1"><stop offset="0" stop-color="#8C8CA6"/><stop offset="0.6" stop-color="#ABA7B8"/><stop offset="1" stop-color="#C9C2C2"/></linearGradient><radialGradient id="stargrad"><stop offset="0" stop-color="#FFFBEA"/><stop offset="1" stop-color="#FFD34E"/></radialGradient><linearGradient id="liagown" x1="0" y1="0" x2="0" y2="1"><stop offset="0" stop-color="#F58BB4"/><stop offset="1" stop-color="#E8629A"/></linearGradient><linearGradient id="lautunic" x1="0" y1="0" x2="0" y2="1"><stop offset="0" stop-color="#4A72D4"/><stop offset="1" stop-color="#33509E"/></linearGradient><linearGradient id="helmet" x1="0" y1="0" x2="0" y2="1"><stop offset="0" stop-color="#DDE5EF"/><stop offset="1" stop-color="#AEBBCB"/></linearGradient><radialGradient id="embody"><stop offset="0" stop-color="#F9A8C4"/><stop offset="1" stop-color="#EE7FA6"/></radialGradient></defs><rect width="1200" height="1500" fill="url(#skyg)"/><defs><radialGradient id="gs760300"><stop offset="0" stop-color="#FFF8DC" stop-opacity="0.25"/><stop offset="0.5" stop-color="#FFE9A0" stop-opacity="0.11"/><stop offset="1" stop-color="#FFE9A0" stop-opacity="0"/></radialGradient></defs><circle cx="760" cy="300" r="279.0" fill="url(#gs760300)"/><polygon points="760.0,210.0 782.2,269.4 845.6,272.2 795.9,311.7 812.9,372.8 760.0,337.8 707.1,372.8 724.1,311.7 674.4,272.2 737.8,269.4" fill="#B9B2A6" stroke="#8f887c" stroke-width="6" stroke-linejoin="round"/><path d="M0,960 Q300.0,820 600.0,897.0 T1200,862.0 L1200,1500 L0,1500 Z" fill="#8E8899" opacity="0.9"/><g transform="translate(760,960) scale(0.72) translate(-760,-960)"><rect x="590" y="730" width="340" height="230" rx="14" fill="#CFC9D6"/><rect x="590" y="708" width="34" height="30" rx="6" fill="#CFC9D6"/><rect x="650" y="708" width="34" height="30" rx="6" fill="#CFC9D6"/><rect x="710" y="708" width="34" height="30" rx="6" fill="#CFC9D6"/><rect x="770" y="708" width="34" height="30" rx="6" fill="#CFC9D6"/><rect x="830" y="708" width="34" height="30" rx="6" fill="#CFC9D6"/><rect x="890" y="708" width="34" height="30" rx="6" fill="#CFC9D6"/><rect x="517.0" y="660" width="86" height="300" rx="7" fill="#CFC9D6"/><polygon points="498.08,660 621.92,660 560,543.9" fill="#8B8496"/><line x1="560" y1="543.9" x2="560" y2="496.59999999999997" stroke="#C9A227" stroke-width="5"/><path d="M560,496.59999999999997 h47.300000000000004 l-15.479999999999999,12.040000000000001 l15.479999999999999,12.040000000000001 h-47.300000000000004 Z" fill="#A79EB4"/><rect x="549.68" y="735.0" width="20.64" height="30.959999999999997" rx="10.32" fill="#FFDD86"/><rect x="549.68" y="831.0" width="20.64" height="30.959999999999997" rx="10.32" fill="#FFDD86"/><rect x="917.0" y="660" width="86" height="300" rx="7" fill="#CFC9D6"/><polygon points="898.08,660 1021.92,660 960,543.9" fill="#8B8496"/><line x1="960" y1="543.9" x2="960" y2="496.59999999999997" stroke="#C9A227" stroke-width="5"/><path d="M960,496.59999999999997 h47.300000000000004 l-15.479999999999999,12.040000000000001 l15.479999999999999,12.040000000000001 h-47.300000000000004 Z" fill="#A79EB4"/><rect x="949.68" y="735.0" width="20.64" height="30.959999999999997" rx="10.32" fill="#FFDD86"/><rect x="949.68" y="831.0" width="20.64" height="30.959999999999997" rx="10.32" fill="#FFDD86"/><rect x="705.0" y="560" width="110" height="400" rx="9" fill="#CFC9D6"/><polygon points="680.8,560 839.2,560 760,411.5" fill="#8B8496"/><line x1="760" y1="411.5" x2="760" y2="351.0" stroke="#C9A227" stroke-width="5"/><path d="M760,351.0 h60.50000000000001 l-19.8,15.400000000000002 l19.8,15.400000000000002 h-60.50000000000001 Z" fill="#A79EB4"/><rect x="746.8" y="660.0" width="26.4" height="39.6" rx="13.2" fill="#FFDD86"/><rect x="746.8" y="788.0" width="26.4" height="39.6" rx="13.2" fill="#FFDD86"/><rect x="746.8" y="916.0" width="26.4" height="39.6" rx="13.2" fill="#FFDD86"/><path d="M708,960 v-100 a52,52 0 0 1 104,0 v100 Z" fill="#5A4470"/><path d="M720,960 v-92 a40,40 0 0 1 80,0 v92 Z" fill="#8A6FB0"/></g><path d="M0,1180 Q300.0,1040 600.0,1117.0 T1200,1082.0 L1200,1500 L0,1500 Z" fill="#8A9389" opacity="1.0"/><g transform="translate(880,1180) scale(0.8)"><ellipse cx="0" cy="0" rx="120" ry="70" fill="#7C7F7B"/><circle cx="-91" cy="-40" r="16" fill="#9A9A9A"/><circle cx="-91" cy="-40" r="7" fill="#FFFFFF" opacity="0.35"/><circle cx="-60" cy="-39" r="16" fill="#9A9A9A"/><circle cx="-60" cy="-39" r="7" fill="#FFFFFF" opacity="0.35"/><circle cx="-34" cy="-42" r="16" fill="#9A9A9A"/><circle cx="-34" cy="-42" r="7" fill="#FFFFFF" opacity="0.35"/><circle cx="3" cy="-20" r="16" fill="#9A9A9A"/><circle cx="3" cy="-20" r="7" fill="#FFFFFF" opacity="0.35"/><circle cx="38" cy="-35" r="16" fill="#9A9A9A"/><circle cx="38" cy="-35" r="7" fill="#FFFFFF" opacity="0.35"/><circle cx="65" cy="-56" r="16" fill="#9A9A9A"/><circle cx="65" cy="-56" r="7" fill="#FFFFFF" opacity="0.35"/><circle cx="99" cy="-35" r="16" fill="#9A9A9A"/><circle cx="99" cy="-35" r="7" fill="#FFFFFF" opacity="0.35"/></g><g transform="translate(1060,1260) scale(0.9)"><ellipse cx="0" cy="0" rx="120" ry="70" fill="#7C7F7B"/><circle cx="-98" cy="-53" r="16" fill="#9A9A9A"/><circle cx="-98" cy="-53" r="7" fill="#FFFFFF" opacity="0.35"/><circle cx="-65" cy="-51" r="16" fill="#9A9A9A"/><circle cx="-65" cy="-51" r="7" fill="#FFFFFF" opacity="0.35"/><circle cx="-29" cy="-45" r="16" fill="#9A9A9A"/><circle cx="-29" cy="-45" r="7" fill="#FFFFFF" opacity="0.35"/><circle cx="6" cy="-52" r="16" fill="#9A9A9A"/><circle cx="6" cy="-52" r="7" fill="#FFFFFF" opacity="0.35"/><circle cx="30" cy="-23" r="16" fill="#9A9A9A"/><circle cx="30" cy="-23" r="7" fill="#FFFFFF" opacity="0.35"/><circle cx="61" cy="-32" r="16" fill="#9A9A9A"/><circle cx="61" cy="-32" r="7" fill="#FFFFFF" opacity="0.35"/><circle cx="97" cy="-51" r="16" fill="#9A9A9A"/><circle cx="97" cy="-51" r="7" fill="#FFFFFF" opacity="0.35"/></g><path d="M0,0 H420 Q430,430 320,720 Q180,980 0,1080 Z" fill="#4E3B66"/><path d="M0,1500 H360 Q400,1240 300,1120 L0,1180 Z" fill="#4E3B66"/><rect x="330" y="980" width="620" height="60" rx="18" fill="#6B547F"/><g transform="translate(560,1010) scale(1.5)"><path d="M-30,-118 C-44,-96 -46,-64 -36,-52 C-20,-60 20,-60 36,-52 C46,-64 44,-96 30,-118 Z" fill="#F3B23E"/><path d="M-16,-96 C-40,-40 -52,-16 -56,-4 Q0,14 56,-4 C52,-16 40,-40 16,-96 Z" fill="url(#liagown)"/><path d="M-56,-4 Q0,14 56,-4 L52,4 Q0,22 -52,4 Z" fill="#D8548C"/><path d="M-18,-88 q-22,10 -28,30" stroke="#FFE0C7" stroke-width="11" fill="none" stroke-linecap="round"/><path d="M18,-88 q22,10 28,30" stroke="#FFE0C7" stroke-width="11" fill="none" stroke-linecap="round"/><path d="M-16,-96 h32 v22 q-16,8 -32,0 Z" fill="#E8629A"/><g transform="translate(0,-124)"><circle r="26" fill="#FFE0C7"/><path d="M-26,-4 C-28,-26 -14,-36 0,-36 C14,-36 28,-26 26,-4 C18,-16 10,-20 0,-20 C-10,-20 -18,-16 -26,-4 Z" fill="#F7C154"/><path d="M-26,-2 q-6,14 -2,26 q6,-10 8,-18 Z" fill="#F7C154"/><path d="M26,-2 q6,14 2,26 q-6,-10 -8,-18 Z" fill="#F7C154"/><path d="M-12,-32 l4,-10 l5,8 l5,-11 l5,11 l5,-8 l4,10 Z" fill="#F5C445" stroke="#D9A31E" stroke-width="1.4"/><circle cx="-8" cy="-2" r="4.6" fill="#3E7BC4"/><circle cx="-6.4" cy="-3.6" r="1.6" fill="#fff"/><circle cx="8" cy="-2" r="4.6" fill="#3E7BC4"/><circle cx="9.6" cy="-3.6" r="1.6" fill="#fff"/><circle cx="-14" cy="6" r="4.4" fill="#F7A8A0" opacity="0.7"/><circle cx="14" cy="6" r="4.4" fill="#F7A8A0" opacity="0.7"/><ellipse cx="0" cy="9" rx="4" ry="5.5" fill="#B06A55"/></g></g><path d="M420,0 Q430,430 320,720 Q180,980 0,1080" fill="none" stroke="#7E68A0" stroke-width="26"/></svg>