<svg xmlns="http://www.w3.org/2000/svg" viewBox="0 0 1200 1500"><defs><linearGradient id="skyg" x1="0" y1="0" x2="0" y2="1"><stop offset="0" stop-color="#7FB8E8"/><stop offset="0.55" stop-color="#F9D9A0"/><stop offset="1" stop-color="#F7B26A"/></linearGradient><radialGradient id="stargrad"><stop offset="0" stop-color="#FFFBEA"/><stop offset="1" stop-color="#FFD34E"/></radialGradient><linearGradient id="liagown" x1="0" y1="0" x2="0" y2="1"><stop offset="0" stop-color="#F58BB4"/><stop offset="1" stop-color="#E8629A"/></linearGradient><linearGradient id="lautunic" x1="0" y1="0" x2="0" y2="1"><stop offset="0" stop-color="#4A72D4"/><stop offset="1" stop-color="#33509E"/></linearGradient><linearGradient id="helmet" x1="0" y1="0" x2="0" y2="1"><stop offset="0" stop-color="#DDE5EF"/><stop offset="1" stop-color="#AEBBCB"/></linearGradient><radialGradient id="embody"><stop offset="0" stop-color="#F9A8C4"/><stop offset="1" stop-color="#EE7FA6"/></radialGradient></defs><rect width="1200" height="1500" fill="url(#skyg)"/><circle cx="600" cy="330" r="130" fill="#FFF0BE" opacity="0.9"/><circle cx="600" cy="330" r="210" fill="#FFF0BE" opacity="0.3"/><path d="M0,1040 Q300.0,900 600.0,977.0 T1200,942.0 L1200,1500 L0,1500 Z" fill="#88B889" opacity="1.0"/><path d="M0,1200 Q300.0,1060 600.0,1137.0 T1200,1102.0 L1200,1500 L0,1500 Z" fill="#5E9A6C" opacity="1.0"/><rect x="0" y="180" width="240" height="1100" rx="20" fill="#8A6FB0"/><rect x="960" y="180" width="240" height="1100" rx="20" fill="#8A6FB0"/><polygon points="-20,180 260,180 120,-40" fill="#5F4390"/><polygon points="940,180 1220,180 1080,-40" fill="#5F4390"/><rect x="90" y="420" width="60" height="90" rx="30" fill="#FFDD86"/><rect x="1050" y="420" width="60" height="90" rx="30" fill="#FFDD86"/><path d="M240,540 q360,-140 720,0 v-70 q-360,-150 -720,0 Z" fill="#5F4390"/><path d="M470,1500 C430,1240 620,1130 560,960 C520,840 600,760 640,700 L760,700 C700,800 640,880 700,1000 C780,1180 620,1290 700,1500 Z" fill="#F2D9A4"/><g transform="translate(180,1420) scale(1.1)"><rect x="-14" y="-118" width="28" height="118" rx="10" fill="#6E4B33"/><circle cx="0" cy="-176" r="86" fill="#3E7D5C"/><circle cx="-66" cy="-132" r="62" fill="#3E7D5C"/><circle cx="66" cy="-132" r="62" fill="#3E7D5C"/><circle cx="-26" cy="-216" r="52" fill="#3E7D5C" opacity="0.92"/><circle cx="34" cy="-208" r="46" fill="#3E7D5C" opacity="0.92"/></g><g transform="translate(1040,1400) scale(0.95)"><rect x="-14" y="-118" width="28" height="118" rx="10" fill="#6E4B33"/><circle cx="0" cy="-176" r="86" fill="#3E7D5C"/><circle cx="-66" cy="-132" r="62" fill="#3E7D5C"/><circle cx="66" cy="-132" r="62" fill="#3E7D5C"/><circle cx="-26" cy="-216" r="52" fill="#3E7D5C" opacity="0.92"/><circle cx="34" cy="-208" r="46" fill="#3E7D5C" opacity="0.92"/></g><g transform="translate(520,1300) scale(1.5)"><path d="M-30,-118 C-44,-96 -46,-64 -36,-52 C-20,-60 20,-60 36,-52 C46,-64 44,-96 30,-118 Z" fill="#F3B23E"/><path d="M-16,-96 C-40,-40 -52,-16 -56,-4 Q0,14 56,-4 C52,-16 40,-40 16,-96 Z" fill="url(#liagown)"/><path d="M-56,-4 Q0,14 56,-4 L52,4 Q0,22 -52,4 Z" fill="#D8548C"/><path d="M-18,-88 q-22,10 -28,30" stroke="#FFE0C7" stroke-width="11" fill="none" stroke-linecap="round"/><path d="M18,-88 q22,10 28,30" stroke="#FFE0C7" stroke-width="11" fill="none" stroke-linecap="round"/><path d="M-16,-96 h32 v22 q-16,8 -32,0 Z" fill="#E8629A"/><g transform="translate(0,-124)"><circle r="26" fill="#FFE0C7"/><path d="M-26,-4 C-28,-26 -14,-36 0,-36 C14,-36 28,-26 26,-4 C18,-16 10,-20 0,-20 C-10,-20 -18,-16 -26,-4 Z" fill="#F7C154"/><path d="M-26,-2 q-6,14 -2,26 q6,-10 8,-18 Z" fill="#F7C154"/><path d="M26,-2 q6,14 2,26 q-6,-10 -8,-18 Z" fill="#F7C154"/><path d="M-12,-32 l4,-10 l5,8 l5,-11 l5,11 l5,-8 l4,10 Z" fill="#F5C445" stroke="#D9A31E" stroke-width="1.4"/><circle cx="-8" cy="-2" r="4.6" fill="#3E7BC4"/><circle cx="-6.4" cy="-3.6" r="1.6" fill="#fff"/><circle cx="8" cy="-2" r="4.6" fill="#3E7BC4"/><circle cx="9.6" cy="-3.6" r="1.6" fill="#fff"/><circle cx="-14" cy="6" r="4.4" fill="#F7A8A0" opacity="0.7"/><circle cx="14" cy="6" r="4.4" fill="#F7A8A0" opacity="0.7"/><path d="M-6,8 q6,6 12,0" stroke="#B06A55" fill="none" stroke-width="2.8" stroke-linecap="round"/></g></g><g transform="translate(700,1298) scale(1.5)"><rect x="-18" y="-34" width="15" height="30" rx="7" fill="#E8B23A"/><rect x="3" y="-34" width="15" height="30" rx="7" fill="#E8B23A"/><rect x="-21" y="-10" width="21" height="12" rx="6" fill="#7A4E2E"/><rect x="0" y="-10" width="21" height="12" rx="6" fill="#7A4E2E"/><path d="M-24,-86 h48 q6,30 2,54 q-26,10 -52,0 q-4,-24 2,-54 Z" fill="url(#lautunic)"/><path d="M0,-72 l4.2,8.4 l9.3,1.3 l-6.7,6.5 l1.6,9.2 L0,-51 l-8.3,4.4 l1.6,-9.2 l-6.7,-6.5 l9.3,-1.3 Z" fill="#F5C445"/><path d="M-22,-80 q-16,10 -18,26" stroke="#FFE0C7" stroke-width="10" fill="none" stroke-linecap="round"/><path d="M22,-80 q12,8 6,24" stroke="#FFE0C7" stroke-width="10" fill="none" stroke-linecap="round"/><g transform="translate(24,-58) rotate(-58)"><rect x="-4" y="-52" width="8" height="44" rx="4" fill="#C89B6C"/><rect x="-11" y="-12" width="22" height="7" rx="3.5" fill="#8A5A34"/><rect x="-4" y="-6" width="8" height="14" rx="4" fill="#6E4B33"/></g><g transform="translate(0,-112)"><circle r="27" fill="#FFE0C7"/><path d="M-27,-6 q4,-12 12,-16 q14,-8 30,2 q8,6 12,14 q-12,-8 -27,-8 q-15,0 -27,8 Z" fill="#E7B96A"/><circle cx="-8" cy="-2" r="4.6" fill="#3E7BC4"/><circle cx="-6.4" cy="-3.6" r="1.6" fill="#fff"/><circle cx="8" cy="-2" r="4.6" fill="#3E7BC4"/><circle cx="9.6" cy="-3.6" r="1.6" fill="#fff"/><circle cx="-14" cy="6" r="4.4" fill="#F7A8A0" opacity="0.7"/><circle cx="14" cy="6" r="4.4" fill="#F7A8A0" opacity="0.7"/><path d="M-6,8 q6,6 12,0" stroke="#B06A55" fill="none" stroke-width="2.8" stroke-linecap="round"/><g transform="rotate(-9)"><path d="M-30,-12 a30,26 0 0 1 60,0 Z" fill="url(#helmet)"/><rect x="-32" y="-14" width="64" height="9" rx="4.5" fill="#9AA7B8"/><circle cx="0" cy="-32" r="5" fill="#E86FA4"/></g></g></g><path d="M580,1176 Q622.0,1192 664,1176" stroke="#FFE0C7" stroke-width="10" fill="none" stroke-linecap="round"/><path transform="translate(320,700) scale(1.0)" opacity="1.0" fill="#FFE9A8" d="M0,-10 C1.5,-3 3,-1.5 10,0 C3,1.5 1.5,3 0,10 C-1.5,3 -3,1.5 -10,0 C-3,-1.5 -1.5,-3 0,-10 Z"/><path transform="translate(900,640) scale(1.2)" opacity="1.0" fill="#FFE9A8" d="M0,-10 C1.5,-3 3,-1.5 10,0 C3,1.5 1.5,3 0,10 C-1.5,3 -3,1.5 -10,0 C-3,-1.5 -1.5,-3 0,-10 Z"/></svg>