<svg xmlns="http://www.w3.org/2000/svg" viewBox="0 0 1200 1500"><defs><linearGradient id="skyg" x1="0" y1="0" x2="0" y2="1"><stop offset="0" stop-color="#241B3E"/><stop offset="0.6" stop-color="#3A2B58"/><stop offset="1" stop-color="#4E3B66"/></linearGradient><radialGradient id="stargrad"><stop offset="0" stop-color="#FFFBEA"/><stop offset="1" stop-color="#FFD34E"/></radialGradient><linearGradient id="liagown" x1="0" y1="0" x2="0" y2="1"><stop offset="0" stop-color="#F58BB4"/><stop offset="1" stop-color="#E8629A"/></linearGradient><linearGradient id="lautunic" x1="0" y1="0" x2="0" y2="1"><stop offset="0" stop-color="#4A72D4"/><stop offset="1" stop-color="#33509E"/></linearGradient><linearGradient id="helmet" x1="0" y1="0" x2="0" y2="1"><stop offset="0" stop-color="#DDE5EF"/><stop offset="1" stop-color="#AEBBCB"/></linearGradient><radialGradient id="embody"><stop offset="0" stop-color="#F9A8C4"/><stop offset="1" stop-color="#EE7FA6"/></radialGradient></defs><rect width="1200" height="1500" fill="url(#skyg)"/><path d="M0,0 H1200 V1500 H0 Z" fill="#241B3E"/><ellipse cx="600" cy="820" rx="640" ry="700" fill="#3A2B58"/><ellipse cx="600" cy="880" rx="520" ry="580" fill="#4A3970"/><path d="M180,0 q24,110 0,190 q-24,-80 0,-190 Z" fill="#2E2450"/><path d="M420,0 q24,110 0,190 q-24,-80 0,-190 Z" fill="#2E2450"/><path d="M800,0 q24,110 0,190 q-24,-80 0,-190 Z" fill="#2E2450"/><path d="M1040,0 q24,110 0,190 q-24,-80 0,-190 Z" fill="#2E2450"/><ellipse cx="600" cy="1420" rx="620" ry="120" fill="#332652"/><ellipse cx="600" cy="1400" rx="560" ry="100" fill="#5A4470"/><defs><radialGradient id="gs6001010"><stop offset="0" stop-color="#FFF8DC" stop-opacity="0.9"/><stop offset="0.5" stop-color="#FFE9A0" stop-opacity="0.41"/><stop offset="1" stop-color="#FFE9A0" stop-opacity="0"/></radialGradient></defs><circle cx="600" cy="1010" r="465.0" fill="url(#gs6001010)"/><polygon points="600.0,860.0 637.0,959.0 742.7,963.6 659.9,1029.5 688.2,1131.4 600.0,1073.0 511.8,1131.4 540.1,1029.5 457.3,963.6 563.0,959.0" fill="url(#stargrad)" stroke="#F5C445" stroke-width="6" stroke-linejoin="round"/><g transform="translate(600,1330) scale(1.9)"><path d="M52,-30 q34,-6 40,-30 q10,22 -12,40 q-16,12 -30,4 Z" fill="#EE7FA6"/><path d="M-40,-52 q-26,-12 -24,-34 q20,6 30,22 Z" fill="#F5A8C0"/><path d="M40,-52 q26,-12 24,-34 q-20,6 -30,22 Z" fill="#F5A8C0"/><ellipse cx="0" cy="-38" rx="52" ry="46" fill="url(#embody)"/><ellipse cx="0" cy="-26" rx="30" ry="26" fill="#FFE3EE"/><ellipse cx="-24" cy="-2" rx="13" ry="9" fill="#EE7FA6"/><ellipse cx="24" cy="-2" rx="13" ry="9" fill="#EE7FA6"/><g transform="translate(0,-88)"><ellipse rx="36" ry="30" fill="url(#embody)"/><path d="M-16,-26 l-6,-18 l14,10 Z" fill="#F5C445"/><path d="M16,-26 l6,-18 l-14,10 Z" fill="#F5C445"/><circle cx="-13" cy="-6" r="9" fill="#fff"/><circle cx="13" cy="-6" r="9" fill="#fff"/><circle cx="-12" cy="-5" r="5.6" fill="#E8A020"/><circle cx="14" cy="-5" r="5.6" fill="#E8A020"/><circle cx="-10.5" cy="-7" r="2" fill="#fff"/><circle cx="15.5" cy="-7" r="2" fill="#fff"/><path d="M-7,13 q7,-6 14,0" stroke="#B4636F" stroke-width="3.4" fill="none" stroke-linecap="round"/><path d="M-24,2 q-6,12 0,17 q7,-5 0,-17 Z" fill="#9AD4F5"/><path d="M24,6 q-5,10 0,14 q6,-4 0,-14 Z" fill="#9AD4F5" opacity="0.8"/><circle cx="-24" cy="6" r="5" fill="#F7A8A0" opacity="0.8"/><circle cx="24" cy="6" r="5" fill="#F7A8A0" opacity="0.8"/></g></g><path transform="translate(330,760) scale(1.3)" opacity="1.0" fill="#FFE9A8" d="M0,-10 C1.5,-3 3,-1.5 10,0 C3,1.5 1.5,3 0,10 C-1.5,3 -3,1.5 -10,0 C-3,-1.5 -1.5,-3 0,-10 Z"/><path transform="translate(880,730) scale(1.1)" opacity="1.0" fill="#FFE9A8" d="M0,-10 C1.5,-3 3,-1.5 10,0 C3,1.5 1.5,3 0,10 C-1.5,3 -3,1.5 -10,0 C-3,-1.5 -1.5,-3 0,-10 Z"/><path transform="translate(450,1240) scale(0.9)" opacity="1.0" fill="#FFE9A8" d="M0,-10 C1.5,-3 3,-1.5 10,0 C3,1.5 1.5,3 0,10 C-1.5,3 -3,1.5 -10,0 C-3,-1.5 -1.5,-3 0,-10 Z"/><path transform="translate(790,1260) scale(1.0)" opacity="1.0" fill="#FFE9A8" d="M0,-10 C1.5,-3 3,-1.5 10,0 C3,1.5 1.5,3 0,10 C-1.5,3 -3,1.5 -10,0 C-3,-1.5 -1.5,-3 0,-10 Z"/></svg>