<svg xmlns="http://www.w3.org/2000/svg" viewBox="0 0 1200 1500"><defs><linearGradient id="skyg" x1="0" y1="0" x2="0" y2="1"><stop offset="0" stop-color="#5F4390"/><stop offset="0.5" stop-color="#7E5BC0"/><stop offset="1" stop-color="#9B7BD4"/></linearGradient><radialGradient id="stargrad"><stop offset="0" stop-color="#FFFBEA"/><stop offset="1" stop-color="#FFD34E"/></radialGradient><linearGradient id="liagown" x1="0" y1="0" x2="0" y2="1"><stop offset="0" stop-color="#F58BB4"/><stop offset="1" stop-color="#E8629A"/></linearGradient><linearGradient id="lautunic" x1="0" y1="0" x2="0" y2="1"><stop offset="0" stop-color="#4A72D4"/><stop offset="1" stop-color="#33509E"/></linearGradient><linearGradient id="helmet" x1="0" y1="0" x2="0" y2="1"><stop offset="0" stop-color="#DDE5EF"/><stop offset="1" stop-color="#AEBBCB"/></linearGradient><radialGradient id="embody"><stop offset="0" stop-color="#F9A8C4"/><stop offset="1" stop-color="#EE7FA6"/></radialGradient></defs><rect width="1200" height="1500" fill="url(#skyg)"/><path d="M130,520 v-190 a70,70 0 0 1 140,0 v190 Z" fill="#3A2B58"/><path d="M144,520 v-180 a56,56 0 0 1 112,0 v180 Z" fill="#FFDD86" opacity="0.9"/><path d="M530,520 v-190 a70,70 0 0 1 140,0 v190 Z" fill="#3A2B58"/><path d="M544,520 v-180 a56,56 0 0 1 112,0 v180 Z" fill="#FFDD86" opacity="0.9"/><path d="M930,520 v-190 a70,70 0 0 1 140,0 v190 Z" fill="#3A2B58"/><path d="M944,520 v-180 a56,56 0 0 1 112,0 v180 Z" fill="#FFDD86" opacity="0.9"/><g transform="translate(600,120)"><path d="M-160,60 Q0,130 160,60" stroke="#C9A227" stroke-width="10" fill="none"/><line x1="0" y1="-120" x2="0" y2="70" stroke="#C9A227" stroke-width="8"/><circle cx="-160" cy="60" r="16" fill="#FFE168"/><circle cx="-160" cy="60" r="30" fill="#FFE168" opacity="0.3"/><circle cx="-80" cy="96" r="16" fill="#FFE168"/><circle cx="-80" cy="96" r="30" fill="#FFE168" opacity="0.3"/><circle cx="0" cy="108" r="16" fill="#FFE168"/><circle cx="0" cy="108" r="30" fill="#FFE168" opacity="0.3"/><circle cx="80" cy="96" r="16" fill="#FFE168"/><circle cx="80" cy="96" r="30" fill="#FFE168" opacity="0.3"/><circle cx="160" cy="60" r="16" fill="#FFE168"/><circle cx="160" cy="60" r="30" fill="#FFE168" opacity="0.3"/></g><rect x="1116" y="793" width="12" height="20" rx="4" fill="#F5C445" transform="rotate(-6 386 156)"/><rect x="992" y="79" width="12" height="20" rx="4" fill="#E86FA4" transform="rotate(36 287 150)"/><rect x="450" y="312" width="12" height="20" rx="4" fill="#8FD0F2" transform="rotate(-7 571 163)"/><rect x="1089" y="102" width="12" height="20" rx="4" fill="#BFF0D8" transform="rotate(-38 1024 16)"/><rect x="896" y="210" width="12" height="20" rx="4" fill="#F5A25C" transform="rotate(-18 320 332)"/><rect x="675" y="749" width="12" height="20" rx="4" fill="#C9A5F0" transform="rotate(-25 735 148)"/><rect x="487" y="490" width="12" height="20" rx="4" fill="#F5C445" transform="rotate(10 1185 126)"/><rect x="414" y="610" width="12" height="20" rx="4" fill="#E86FA4" transform="rotate(-32 874 230)"/><rect x="476" y="221" width="12" height="20" rx="4" fill="#8FD0F2" transform="rotate(-23 1060 800)"/><rect x="679" y="96" width="12" height="20" rx="4" fill="#BFF0D8" transform="rotate(-4 853 449)"/><rect x="651" y="965" width="12" height="20" rx="4" fill="#F5A25C" transform="rotate(33 1093 43)"/><rect x="32" y="59" width="12" height="20" rx="4" fill="#C9A5F0" transform="rotate(26 945 310)"/><rect x="705" y="201" width="12" height="20" rx="4" fill="#F5C445" transform="rotate(-27 931 641)"/><rect x="406" y="705" width="12" height="20" rx="4" fill="#E86FA4" transform="rotate(-36 945 888)"/><rect x="971" y="923" width="12" height="20" rx="4" fill="#8FD0F2" transform="rotate(-6 576 523)"/><rect x="1139" y="231" width="12" height="20" rx="4" fill="#BFF0D8" transform="rotate(37 242 574)"/><rect x="607" y="129" width="12" height="20" rx="4" fill="#F5A25C" transform="rotate(-38 201 668)"/><rect x="582" y="937" width="12" height="20" rx="4" fill="#C9A5F0" transform="rotate(-8 325 491)"/><rect x="156" y="410" width="12" height="20" rx="4" fill="#F5C445" transform="rotate(32 1187 734)"/><rect x="295" y="865" width="12" height="20" rx="4" fill="#E86FA4" transform="rotate(-23 34 126)"/><rect x="23" y="250" width="12" height="20" rx="4" fill="#8FD0F2" transform="rotate(-33 1071 415)"/><rect x="661" y="795" width="12" height="20" rx="4" fill="#BFF0D8" transform="rotate(11 704 492)"/><rect x="45" y="729" width="12" height="20" rx="4" fill="#F5A25C" transform="rotate(27 619 677)"/><rect x="1121" y="976" width="12" height="20" rx="4" fill="#C9A5F0" transform="rotate(15 0 623)"/><rect x="377" y="52" width="12" height="20" rx="4" fill="#F5C445" transform="rotate(-30 744 549)"/><rect x="1077" y="683" width="12" height="20" rx="4" fill="#E86FA4" transform="rotate(-39 125 397)"/><rect x="135" y="529" width="12" height="20" rx="4" fill="#8FD0F2" transform="rotate(-3 753 821)"/><rect x="992" y="986" width="12" height="20" rx="4" fill="#BFF0D8" transform="rotate(1 306 267)"/><rect x="1139" y="176" width="12" height="20" rx="4" fill="#F5A25C" transform="rotate(19 826 349)"/><rect x="871" y="279" width="12" height="20" rx="4" fill="#C9A5F0" transform="rotate(23 229 206)"/><rect x="1072" y="927" width="12" height="20" rx="4" fill="#F5C445" transform="rotate(27 193 212)"/><rect x="517" y="644" width="12" height="20" rx="4" fill="#E86FA4" transform="rotate(-19 840 809)"/><rect x="953" y="328" width="12" height="20" rx="4" fill="#8FD0F2" transform="rotate(-36 426 105)"/><rect x="990" y="245" width="12" height="20" rx="4" fill="#BFF0D8" transform="rotate(-31 990 810)"/><rect x="546" y="491" width="12" height="20" rx="4" fill="#F5A25C" transform="rotate(-27 804 12)"/><rect x="244" y="204" width="12" height="20" rx="4" fill="#C9A5F0" transform="rotate(-16 296 438)"/><rect x="0" y="1060" width="1200" height="440" fill="#8A6FB0"/><path d="M0,1060 h1200 v26 h-1200 Z" fill="#5F4390"/><rect x="18" y="1120" width="114" height="70" rx="10" fill="#7E5BC0" opacity="0.5"/><rect x="168" y="1120" width="114" height="70" rx="10" fill="#7E5BC0" opacity="0.5"/><rect x="318" y="1120" width="114" height="70" rx="10" fill="#7E5BC0" opacity="0.5"/><rect x="468" y="1120" width="114" height="70" rx="10" fill="#7E5BC0" opacity="0.5"/><rect x="618" y="1120" width="114" height="70" rx="10" fill="#7E5BC0" opacity="0.5"/><rect x="768" y="1120" width="114" height="70" rx="10" fill="#7E5BC0" opacity="0.5"/><rect x="918" y="1120" width="114" height="70" rx="10" fill="#7E5BC0" opacity="0.5"/><rect x="1068" y="1120" width="114" height="70" rx="10" fill="#7E5BC0" opacity="0.5"/><ellipse cx="600" cy="1460" rx="640" ry="110" fill="#7E5BC0" opacity="0.6"/><g transform="translate(420,1360) scale(1.7)"><path d="M-30,-118 C-44,-96 -46,-64 -36,-52 C-20,-60 20,-60 36,-52 C46,-64 44,-96 30,-118 Z" fill="#F3B23E"/><path d="M-16,-96 C-52,-52 -78,-24 -84,-6 Q0,20 84,-6 C78,-24 52,-52 16,-96 Z" fill="url(#liagown)"/><path d="M-84,-6 Q0,20 84,-6 L80,2 Q0,28 -80,2 Z" fill="#D8548C"/><path d="M-18,-88 q-26,-4 -34,18" stroke="#FFE0C7" stroke-width="11" fill="none" stroke-linecap="round"/><path d="M18,-90 q20,-22 26,-38" stroke="#FFE0C7" stroke-width="11" fill="none" stroke-linecap="round"/><path d="M-16,-96 h32 v22 q-16,8 -32,0 Z" fill="#E8629A"/><g transform="translate(0,-124)"><circle r="26" fill="#FFE0C7"/><path d="M-26,-4 C-28,-26 -14,-36 0,-36 C14,-36 28,-26 26,-4 C18,-16 10,-20 0,-20 C-10,-20 -18,-16 -26,-4 Z" fill="#F7C154"/><path d="M-26,-2 q-6,14 -2,26 q6,-10 8,-18 Z" fill="#F7C154"/><path d="M26,-2 q6,14 2,26 q-6,-10 -8,-18 Z" fill="#F7C154"/><path d="M-12,-32 l4,-10 l5,8 l5,-11 l5,11 l5,-8 l4,10 Z" fill="#F5C445" stroke="#D9A31E" stroke-width="1.4"/><circle cx="-8" cy="-2" r="4.6" fill="#3E7BC4"/><circle cx="-6.4" cy="-3.6" r="1.6" fill="#fff"/><circle cx="8" cy="-2" r="4.6" fill="#3E7BC4"/><circle cx="9.6" cy="-3.6" r="1.6" fill="#fff"/><circle cx="-14" cy="6" r="4.4" fill="#F7A8A0" opacity="0.7"/><circle cx="14" cy="6" r="4.4" fill="#F7A8A0" opacity="0.7"/><path d="M-6,8 q6,6 12,0" stroke="#B06A55" fill="none" stroke-width="2.8" stroke-linecap="round"/></g></g><g transform="translate(720,1356) scale(1.6)"><rect x="-18" y="-34" width="15" height="30" rx="7" fill="#E8B23A" transform="rotate(18 -10 -34)"/><rect x="3" y="-34" width="15" height="30" rx="7" fill="#E8B23A"/><rect x="-30" y="-22" width="21" height="12" rx="6" fill="#7A4E2E" transform="rotate(18 -10 -34)"/><rect x="0" y="-10" width="21" height="12" rx="6" fill="#7A4E2E"/><path d="M-24,-86 h48 q6,30 2,54 q-26,10 -52,0 q-4,-24 2,-54 Z" fill="url(#lautunic)"/><path d="M0,-72 l4.2,8.4 l9.3,1.3 l-6.7,6.5 l1.6,9.2 L0,-51 l-8.3,4.4 l1.6,-9.2 l-6.7,-6.5 l9.3,-1.3 Z" fill="#F5C445"/><path d="M-22,-80 q-16,10 -18,26" stroke="#FFE0C7" stroke-width="10" fill="none" stroke-linecap="round"/><path d="M22,-80 q12,8 6,24" stroke="#FFE0C7" stroke-width="10" fill="none" stroke-linecap="round"/><g transform="translate(24,-58) rotate(-58)"><rect x="-4" y="-52" width="8" height="44" rx="4" fill="#C89B6C"/><rect x="-11" y="-12" width="22" height="7" rx="3.5" fill="#8A5A34"/><rect x="-4" y="-6" width="8" height="14" rx="4" fill="#6E4B33"/></g><g transform="translate(0,-112)"><circle r="27" fill="#FFE0C7"/><path d="M-27,-6 q4,-12 12,-16 q14,-8 30,2 q8,6 12,14 q-12,-8 -27,-8 q-15,0 -27,8 Z" fill="#E7B96A"/><circle cx="-8" cy="-2" r="4.6" fill="#3E7BC4"/><circle cx="-6.4" cy="-3.6" r="1.6" fill="#fff"/><circle cx="8" cy="-2" r="4.6" fill="#3E7BC4"/><circle cx="9.6" cy="-3.6" r="1.6" fill="#fff"/><circle cx="-14" cy="6" r="4.4" fill="#F7A8A0" opacity="0.7"/><circle cx="14" cy="6" r="4.4" fill="#F7A8A0" opacity="0.7"/><path d="M-6,8 q6,6 12,0" stroke="#B06A55" fill="none" stroke-width="2.8" stroke-linecap="round"/><g transform="rotate(-9)"><path d="M-30,-12 a30,26 0 0 1 60,0 Z" fill="url(#helmet)"/><rect x="-32" y="-14" width="64" height="9" rx="4.5" fill="#9AA7B8"/><circle cx="0" cy="-32" r="5" fill="#E86FA4"/></g></g></g><g transform="translate(950,1330) scale(1.35)"><path d="M52,-30 q34,-6 40,-30 q10,22 -12,40 q-16,12 -30,4 Z" fill="#EE7FA6"/><path d="M-40,-52 q-26,-12 -24,-34 q20,6 30,22 Z" fill="#F5A8C0"/><path d="M40,-52 q26,-12 24,-34 q-20,6 -30,22 Z" fill="#F5A8C0"/><ellipse cx="0" cy="-38" rx="52" ry="46" fill="url(#embody)"/><ellipse cx="0" cy="-26" rx="30" ry="26" fill="#FFE3EE"/><ellipse cx="-24" cy="-2" rx="13" ry="9" fill="#EE7FA6"/><ellipse cx="24" cy="-2" rx="13" ry="9" fill="#EE7FA6"/><g transform="translate(0,-88)"><ellipse rx="36" ry="30" fill="url(#embody)"/><path d="M-16,-26 l-6,-18 l14,10 Z" fill="#F5C445"/><path d="M16,-26 l6,-18 l-14,10 Z" fill="#F5C445"/><circle cx="-13" cy="-6" r="9" fill="#fff"/><circle cx="13" cy="-6" r="9" fill="#fff"/><circle cx="-12" cy="-5" r="5.6" fill="#E8A020"/><circle cx="14" cy="-5" r="5.6" fill="#E8A020"/><circle cx="-10.5" cy="-7" r="2" fill="#fff"/><circle cx="15.5" cy="-7" r="2" fill="#fff"/><path d="M-7,10 q7,7 14,0" stroke="#B4636F" stroke-width="3.4" fill="none" stroke-linecap="round"/><circle cx="-24" cy="6" r="5" fill="#F7A8A0" opacity="0.8"/><circle cx="24" cy="6" r="5" fill="#F7A8A0" opacity="0.8"/></g></g><path d="M920,1218 q30,-26 62,0 l-8,20 q-24,-12 -46,0 Z" fill="#E8629A"/><path transform="translate(260,860) scale(1.2)" opacity="1.0" fill="#FFE9A8" d="M0,-10 C1.5,-3 3,-1.5 10,0 C3,1.5 1.5,3 0,10 C-1.5,3 -3,1.5 -10,0 C-3,-1.5 -1.5,-3 0,-10 Z"/><path transform="translate(940,800) scale(1.0)" opacity="1.0" fill="#FFE9A8" d="M0,-10 C1.5,-3 3,-1.5 10,0 C3,1.5 1.5,3 0,10 C-1.5,3 -3,1.5 -10,0 C-3,-1.5 -1.5,-3 0,-10 Z"/></svg>